<?xml version="1.0" encoding="UTF-8"?>
<svg id="Laag_1" xmlns="http://www.w3.org/2000/svg" viewBox="0 0 557.65 550.78">
  <defs>
    <style>
      .cls-1 {
        fill: #93b3cf;
      }
    </style>
  </defs>
  <path class="cls-1" d="M132.27,304.84c-4.44-.17-8.6-.86-12.46-2.07-3.86-1.21-7.43-2.89-10.67-5.02-3.24-2.13-6.19-4.58-8.81-7.31-2.62-2.73-4.99-5.73-7.07-8.97-.23,3.42-.37,6.58-.45,9.44-.08,2.87-.03,5.51-.06,7.71-.02,1.66-.07,4.29.06,7.83.13,3.54.33,7.18.59,10.93.39,5.5.65,8.32,1.31,14.1-31.2.78-62.39,1.66-93.58,2.61-.73-21.87-1.02-43.86-.32-65.56.71-21.95,2.23-44.31,4.71-66.11,2.33-20.55,5.75-41.34,8.9-61.96,2.77-18.15,5.65-36.33,7.43-54.62,6.94,1.49,12.71,2.69,17.18,3.57,4.48.88,7.35,1.34,8.57,1.35,3.77.05,8.12-.25,12.98-.93,4.86-.68,9.68-1.46,14.39-2.29,2.73-.48,5.65-.98,8.69-1.52,3.04-.54,6.09-1.03,9.14-1.49,3.05-.45,6.07-.81,9.08-1.05,3-.25,5.95-.36,8.77-.34,4.96.03,9.87.54,14.68,1.55,4.82,1.01,9.52,2.67,14.02,4.96,4.5,2.29,8.78,5.31,12.73,9,3.94,3.69,7.47,8.24,10.43,13.54,3.59,13.56,6.64,27.02,8.26,40.98,6.56-9.72,12.59-19.82,18.29-29.95,7.11-12.62,13.37-25.87,19.43-39.14,1.96.78,3.86,1.4,5.52,1.95,1.4.47,2.87,1.01,4.32,1.45,1.45.43,2.52.77,3.22,1.02-.17,0-.26,0-.43,0,1.86.36,4.27.52,7.23.49,4.68-.06,9.5-.63,14.51-1.68,5-1.05,10.04-2.21,15.09-3.49,4.95-1.25,9.81-2.35,14.54-3.25,4.73-.9,9.31-1.33,13.71-1.33,5.17,0,9.88.6,14.08,1.71,4.2,1.11,7.77,2.93,10.68,5.37,2.92,2.45,5.17,5.69,6.77,9.73,1.6,4.04,2.48,9.16,2.36,15.2-.07,3.53-.14,7.7-.24,12.18-.08,3.82-.23,8.47-.28,13.8-.06,5.33-.12,11.24-.2,17.73-.09,7.18-.15,14.81-.16,22.86-.01,8.05,0,16.36.05,24.92.05,8.57.16,17.2.36,25.9.2,8.7.46,17.23.95,25.53.5,8.3,1.02,16.31,1.55,24.02.53,7.71,1.17,14.78,1.87,21.21-.07-.23-.11-.35-.18-.58.47,3.7-.86,7.84-3.7,12.35-2.84,4.51-6.7,8.71-11.39,12.63-4.69,3.92-10.04,7.18-16.11,9.82-6.07,2.64-12.59,4.12-19.6,4.01-11.53-.18-23.5-.98-34.79-3.73-8.85-2.16-19.07-6.47-26.56-11.83-7.43-5.32-13.37-11.76-17.77-19.27-4.4-7.5-7.58-16.07-9.24-25.42-2.7,4.19-5.86,7.99-9.57,11.39-3.71,3.4-7.77,6.35-12.26,8.8-4.49,2.45-9.33,4.36-14.53,5.64-5.21,1.29-10.56,1.86-16.01,1.65ZM219.07,113.21c-4.63,7.72-9.18,15.19-13.65,22.43-4.48,7.24-8.91,14.08-13.26,20.61-4.36,6.54-8.56,12.77-12.93,18.48-4.37,5.72-8.62,10.97-12.67,15.9-2.85-1-4.28-1.5-7.15-2.5-.59-4.67-1.06-9.67-1.5-15.05-.44-5.38-1.23-11.04-2.16-16.8-.92-5.77-2.07-11.62-3.49-17.6-1.42-5.98-3.09-12.27-5.52-17.37-2.55-5.36-7.26-9.53-12.3-11.77-5.04-2.24-10.68-3.47-16.85-3.69-4.75-.17-10.19-.04-15.72.54-5.53.59-11.14,1.24-16.85,1.97-5.72.73-11.47,1.39-17.25,2-5.79.61-11.34.86-16.6.74-1.5-.03-2.84,0-4.01.13-1.17.12-2.82-.08-4.94-.59-.83,9.71-1.79,19.42-2.81,29.11-1.14,10.84-2.36,21.52-4.2,32.24-1.93,11.25-3.91,22.6-5.6,33.86-1.64,10.89-3.15,21.92-4.4,32.91-1.15,10.14-2.34,20.32-3.18,30.49-.79,9.51-1.27,17.69-1.48,24.48-.07,2.37-.26,4.76-.56,7.16-.3,2.41-.24,4.93.2,7.58,17.79-1.22,35.56-2.01,53.39-2.44-.02-3.43.04-9.09.45-16.7.41-7.61,1.12-16.39,2.22-26.11,1.16-10.16,2.75-20.34,4.43-30.44,1.71-10.25,3.66-20.48,5.68-30.68,3.19,10.13,6.03,20.41,8.66,30.7-.05-.06-.07-.08-.11-.14,1.81,5.65,3.59,11.37,5.47,17.07,1.88,5.7,4.17,10.78,6.97,15.46,2.8,4.69,6.16,8.64,9.98,11.75,3.82,3.11,8.43,4.84,13.69,5.18,5.43.35,10.17.16,14.19-.56,4.02-.72,7.58-2.02,10.68-3.88,3.1-1.86,5.94-4.2,8.55-7,2.61-2.8,5.22-6.07,7.88-9.77,2.66-3.71,5.4-7.93,8.65-12.46,3.24-4.53,6.97-9.45,11.22-14.82,6.43-8.09,9.76-12.07,16.45-20.33-2.1,10.58-3.97,21.05-5.54,31.73-1.22,9.37-1.09,20.12.69,29.4,1.65,8.58,5.28,16.24,10.54,22.48,5.25,6.24,12.41,11.17,21.01,14.37,10.44,3.88,21.87,5.16,32.97,5.38,4.57.09,8.77-.35,12.62-1.34,3.85-.99,7.19-2.27,10.03-3.82,2.84-1.55,5.08-3.23,6.68-5.05,1.61-1.81,2.38-3.48,2.26-5.01-1.15-6.29-2.2-13.2-3.09-20.71-.89-7.5-1.69-15.28-2.39-23.32-.7-8.04-.45-16.49-.31-25.05.14-8.56.4-17.02.72-25.41.33-8.39.69-16.57,1.04-24.57.35-8,.78-15.76,1.23-23.22.41-6.66.74-12.78,1.02-18.36.27-5.57.58-10.45.77-14.46.23-4.7.49-9.18.55-12.84.06-4.13-1.32-7.2-3.65-8.78-2.33-1.58-5.52-2.26-9.53-2-3.44.22-7.4.9-11.85,2.05-4.45,1.15-9.16,2.4-14.11,3.74-4.95,1.33-10,2.57-15.15,3.7-5.15,1.13-10.17,1.77-15.09,1.92-1.91.06-3.83.06-5.74,0-1.91-.06-3.63-.32-5.24-.94Z"/>
  <path class="cls-1" d="M486.65,286.41c-1.82,9.83-3.77,19.66-5.71,29.44-1.96,9.89-3.37,20.39-4.39,30.21-1.01,9.68-.4,21.5,1.57,31.01,2.19,10.61,5.58,21.47,9.58,31.6,2.03,5.14,2.9,9.86,2.27,14.03-.63,4.17-2.15,7.95-4.52,11.34-2.37,3.4-5.35,6.47-8.98,9.21-3.62,2.74-7.48,5.18-11.52,7.29-4.04,2.11-8.29,3.75-12.76,4.82-4.47,1.07-8.73,1.71-12.56,1.65-11.63-.19-23.73-.99-35.09-3.83-8.65-2.16-18.67-6.8-25.84-12.19-6.86-5.16-12.65-11.37-16.77-18.51-4.12-7.14-7.12-15.4-9.03-24.51-2.03-9.65-2.93-20.36-2.62-30.22.36-11.74,1.26-23.3,2.45-35.02-.02.12-.03.19-.04.31.25-3.29.69-7.01,1.33-11.1.63-4.1,1.3-8.21,1.98-12.35.94-5.72,1.76-10.64,2.45-14.85s1.4-8.21,2.11-12.05c.72-3.83,1.42-7.73,2.09-11.71.67-3.97,1.44-8.5,2.25-13.62-20.17.12-39.62,3.81-59.12,8.6-2.82-31.3-7.06-62.44-9.59-93.78,14.13-2.53,28.36-4.54,42.59-6.23,13.46-1.6,26.97-3.1,40.46-4.57,13.12-1.43,26.34-2.89,39.37-3.87,12.82-.96,25.87-1.49,38.75-1.58,5.91-.04,11.27-.04,15.95-.13,4.68-.09,9.15-.09,13.4,0,4.24.09,8.46.35,12.61.76,4.15.41,8.7,1.02,13.64,1.76-.07,0-.1,0-.17,0,7.34,1.03,13.86,3.65,19.43,7.32,5.57,3.67,10.16,7.92,13.86,12.71,3.7,4.78,6.53,9.99,8.51,15.92,1.98,5.93,3.06,12.27,3.06,19.49,0,3.32-.38,7.11-1.19,11.4-.81,4.3-2.18,8.95-4.14,13.97-1.97,5.02-4.6,10.19-7.87,15.42-3.28,5.24-7.43,10.49-12.13,14.94-4.71,4.46-10.1,8.31-15.95,11.3-5.85,2.99-12.36,4.89-19.06,5.57-.85.09-1.82.19-2.87.27-1.06.09-2.1.13-3.12.14-1.03,0-1.97-.03-2.81-.11-.85-.07-1.46-.16-1.84-.26ZM494.89,262.02c2.14.1,4.17.02,6.03-.28,4.96-.79,9.48-2.78,13.35-5.78s7.17-6.46,9.78-10.21c2.61-3.76,4.6-7.62,5.94-11.52,1.34-3.9,2.09-7.37,2.26-10.43.54-9.41-1.1-17-4.72-23.29-3.62-6.28-9.15-9.72-16.31-9.94-4.38-.13-8.37-.22-11.96-.15-3.59.07-7.19.2-10.79.42-3.6.21-7.41.49-11.43.82-4.02.33-8.88-.13-14.29-.52-10.9-.78-21.88-1.39-32.78-1.83-10.76-.43-21.76-.52-32.42-.52-11.48,0-23.36-.34-34.83,0-11.43.34-22.92,1.32-34.44,2.56,1.92,8.36,3.52,16.19,4.82,23.54,1.3,7.36,2.61,14.99,3.9,22.86,5.66-.48,10.88-.72,15.71-.8,4.83-.07,9.4,0,13.73.17,4.33.17,8.56.51,12.7.99,4.14.48,8.29,1.1,12.44,1.84-.16,5.12-.36,10.51-1.29,16.36-.93,5.86-2.09,11.76-3.41,17.79-1.33,6.03-2.79,12.04-4.29,18.13-1.5,6.09-2.94,12-4.26,17.7-2.3,9.88-4.28,20.08-5.7,30.14-1.39,9.87-1.88,19.21-1.44,27.65.44,8.45,1.9,16.05,4.26,22.55,2.36,6.5,6.11,12.6,10.97,17.58,4.86,4.97,11.04,8.93,18.37,11.73,7.33,2.8,16.11,4.64,26.24,5.59,4.48.42,8.69.12,12.59-.8,3.9-.92,7.27-2.21,10.11-3.81,2.84-1.6,5.19-3.29,6.98-5.11,1.78-1.82,2.5-3.62,2.11-5.45-.06-.28-.09-.41-.14-.69-4.14-12.18-7.67-23.74-9.01-35.92-1.16-10.59-.94-22.07.68-33.08,1.51-10.27,3.75-20.82,6.28-30.96,2.49-9.97,4.91-20.03,7.01-30.11,1.45-6.94,2.09-10.6,3.18-18.28,3.12.72,5.67.86,7.72.9,2.05.04,3.91.03,5.58-.01,1.66-.04,3.3-.05,4.88-.04,1.59.02,3.56.09,5.9.2Z"/>
</svg>